<svg xmlns="http://www.w3.org/2000/svg" version="1.1" xmlns:xlink="http://www.w3.org/1999/xlink" xmlns:svgjs="http://svgjs.dev/svgjs" width="1500" height="305" viewBox="0 0 1500 305"><g transform="matrix(1,0,0,1,-0.5435114503816294,-1.621710741180209)"><svg viewBox="0 0 393 80" data-background-color="#ffffff" preserveAspectRatio="xMidYMid meet" height="305" width="1500" xmlns="http://www.w3.org/2000/svg" xmlns:xlink="http://www.w3.org/1999/xlink"><g id="tight-bounds" transform="matrix(1,0,0,1,0.14239999999998076,0.42813437004301136)"><svg viewBox="0 0 392.71520000000004 78.6348" height="78.6348" width="392.71520000000004"><g><svg viewBox="0 0 392.71520000000004 78.6348" height="78.6348" width="392.71520000000004"><g><svg viewBox="0 0 392.71520000000004 78.6348" height="78.6348" width="392.71520000000004"><g id="textblocktransform"><svg viewBox="0 0 392.71520000000004 78.6348" height="78.6348" width="392.71520000000004" id="textblock"><g><svg viewBox="0 0 392.71520000000004 78.6348" height="78.6348" width="392.71520000000004"><g><svg><g></g><g></g></svg></g><g><svg><g><svg></svg></g><g></g></svg></g><g id="text-0"><svg viewBox="0 0 392.71520000000004 78.6348" height="78.6348" width="392.71520000000004"><g transform="matrix(1,0,0,1,0,16.0174)"><svg width="154.1" viewBox="0.5 -35 154.09 46.6" height="46.6" data-palette-color="#ca3433"><path d="M16 0L11.25 0 11.25-30.8 0.5-30.8 0.5-35 26.75-35 26.75-30.8 16-30.8 16 0ZM35.75 0L31.25 0 31.25-26 35.6-26 35.6-20.35Q36.25-22 37.35-23.43 38.45-24.85 40.1-25.73 41.75-26.6 43.95-26.6L43.95-26.6Q44.7-26.6 45.45-26.53 46.2-26.45 46.7-26.3L46.7-26.3 45.35-21.65Q44.4-22.05 43.1-22.05L43.1-22.05Q41.25-22.05 39.57-21 37.9-19.95 36.82-17.75 35.75-15.55 35.75-12.15L35.75-12.15 35.75 0ZM59.7 0.6L59.7 0.6Q57.45 0.6 55.45-0.35 53.45-1.3 52.2-3.43 50.95-5.55 50.95-9.1L50.95-9.1 50.95-26 55.45-26 55.45-9.7Q55.45-6.65 56.75-5.03 58.05-3.4 60.55-3.4L60.55-3.4Q62.6-3.4 64.52-4.23 66.45-5.05 67.95-6.45L67.95-6.45 67.95-26 72.45-26 72.45-6.75Q72.45-4.6 73.37-3.93 74.3-3.25 75.4-3.25L75.4-3.25 74.45 0.25Q69.8 0.25 68.7-3.45L68.7-3.45Q66.95-1.65 64.65-0.53 62.35 0.6 59.7 0.6ZM81.04 11.6L81.04 11.6Q79.54 11.6 78.42 11.3 77.29 11 76.64 10.6L76.64 10.6 77.64 6.85Q78.24 7.2 79.14 7.45 80.04 7.7 81.14 7.7L81.14 7.7Q83.24 7.7 84.89 6.35 86.54 5 88.04 1.05L88.04 1.05 89.19-1.95 86.79-1.95 76.64-24.8 80.64-26.6 90.34-4.95 97.89-26.4 102.04-24.8 92.49 1.3Q91.04 5.3 89.34 7.55 87.64 9.8 85.59 10.7 83.54 11.6 81.04 11.6ZM115.94 0.6L115.94 0.6Q110.34 0.6 107.07-2.98 103.79-6.55 103.79-13L103.79-13Q103.79-16.9 105.27-19.98 106.74-23.05 109.39-24.83 112.04-26.6 115.54-26.6L115.54-26.6Q119.29-26.6 121.77-24.98 124.24-23.35 125.49-20.6 126.74-17.85 126.74-14.55L126.74-14.55Q126.74-12.8 126.59-11.15L126.59-11.15 108.39-11.15Q108.84-7.5 110.94-5.45 113.04-3.4 116.49-3.4L116.49-3.4Q118.74-3.4 120.54-3.88 122.34-4.35 123.99-5.1L123.99-5.1 125.04-1.25Q123.24-0.45 120.99 0.08 118.74 0.6 115.94 0.6ZM108.34-14.8L108.34-14.8 122.59-14.8Q122.59-18.6 120.69-20.65 118.79-22.7 115.44-22.7L115.44-22.7Q112.54-22.7 110.64-20.68 108.74-18.65 108.34-14.8ZM137.24 0L132.74 0 132.74-26 137.09-26 137.09-21.65Q138.49-23.75 140.66-25.18 142.84-26.6 145.84-26.6L145.84-26.6Q150.24-26.6 152.41-23.95 154.59-21.3 154.59-16.95L154.59-16.95 154.59 0 150.09 0 150.09-16.45Q150.09-19.25 148.76-20.95 147.44-22.65 145.09-22.65L145.09-22.65Q142.79-22.65 140.74-21.03 138.69-19.4 137.24-17.2L137.24-17.2 137.24 0Z" opacity="1" transform="matrix(1,0,0,1,0,0)" fill="#ca3433" class="undefined-tk-0"></path></svg></g><g><svg xmlns="http://www.w3.org/2000/svg" xmlns:xlink="http://www.w3.org/1999/xlink" version="1.1" x="172.6652" y="0" viewBox="0 0 32 32" style="enable-background:new 0 0 32 32;" xml:space="preserve" height="78.6348" width="78.6348" class="icon-dxe-0" data-fill-palette-color="accent" id="dxe-0"><g fill="#ca3433" data-fill-palette-color="accent"><path d="M16 32A1 1 0 0 1 15 31C15 27.691 17.691 25 21 25A1 1 0 1 1 21 27C18.794 27 17 28.794 17 31A1 1 0 0 1 16 32" fill="#ca3433" data-fill-palette-color="accent"></path><path d="M11 27A1 1 0 1 1 11 25C13.206 25 15 23.206 15 21A1 1 0 1 1 17 21C17 24.309 14.309 27 11 27" fill="#ca3433" data-fill-palette-color="accent"></path><path d="M16 32A1 1 0 0 1 15 31C15 28.794 13.206 27 11 27A1 1 0 1 1 11 25C14.309 25 17 27.691 17 31A1 1 0 0 1 16 32" fill="#ca3433" data-fill-palette-color="accent"></path><path d="M21 27C17.691 27 15 24.309 15 21A1 1 0 1 1 17 21C17 23.206 18.794 25 21 25A1 1 0 1 1 21 27" fill="#ca3433" data-fill-palette-color="accent"></path><path d="M7 5A1 1 0 0 1 6 4V1A1 1 0 0 1 8 1V4A1 1 0 0 1 7 5" fill="#ca3433" data-fill-palette-color="accent"></path><path d="M7 14A1 1 0 0 1 6 13V10A1 1 0 0 1 8 10V13A1 1 0 0 1 7 14" fill="#ca3433" data-fill-palette-color="accent"></path><path d="M7 8C6.74 8 6.48 7.89 6.29 7.71 6.11 7.52 6 7.26 6 7S6.11 6.48 6.29 6.29C6.67 5.92 7.33 5.92 7.71 6.29 7.89 6.48 8 6.74 8 7S7.89 7.52 7.71 7.71C7.52 7.89 7.26 8 7 8" fill="#ca3433" data-fill-palette-color="accent"></path><path d="M16 15C15.74 15 15.48 14.89 15.29 14.71 15.11 14.52 15 14.26 15 14S15.11 13.48 15.29 13.29C15.67 12.92 16.34 12.92 16.71 13.29 16.89 13.48 17 13.74 17 14S16.89 14.52 16.71 14.71C16.52 14.89 16.26 15 16 15" fill="#ca3433" data-fill-palette-color="accent"></path><path d="M3 32C2.74 32 2.48 31.89 2.29 31.71 2.11 31.52 2 31.26 2 31 2 30.729 2.11 30.47 2.29 30.29 2.67 29.92 3.34 29.92 3.71 30.29 3.89 30.479 4 30.729 4 31 4 31.26 3.89 31.52 3.71 31.71 3.52 31.89 3.27 32 3 32" fill="#ca3433" data-fill-palette-color="accent"></path><path d="M1 18C0.74 18 0.48 17.89 0.29 17.71 0.11 17.52 0 17.27 0 17 0 16.74 0.11 16.48 0.29 16.29 0.66 15.92 1.33 15.92 1.71 16.29 1.89 16.48 2 16.74 2 17S1.89 17.52 1.71 17.71C1.52 17.89 1.26 18 1 18" fill="#ca3433" data-fill-palette-color="accent"></path><path d="M23 20C22.74 20 22.479 19.89 22.29 19.71 22.109 19.52 22 19.26 22 19S22.109 18.479 22.29 18.29C22.67 17.92 23.34 17.92 23.71 18.29 23.89 18.479 24 18.74 24 19S23.89 19.52 23.71 19.71C23.52 19.89 23.26 20 23 20" fill="#ca3433" data-fill-palette-color="accent"></path><path d="M29 30C28.729 30 28.479 29.89 28.29 29.71 28.109 29.52 28 29.26 28 29 28 28.729 28.109 28.479 28.29 28.29 28.66 27.92 29.34 27.92 29.71 28.29 29.89 28.479 30 28.729 30 29 30 29.26 29.89 29.52 29.71 29.71 29.52 29.89 29.26 30 29 30" fill="#ca3433" data-fill-palette-color="accent"></path><path d="M31 16C30.729 16 30.479 15.89 30.29 15.71 30.109 15.52 30 15.26 30 15 30 14.73 30.109 14.48 30.29 14.29 30.649 13.93 31.33 13.92 31.71 14.29 31.89 14.48 32 14.73 32 15 32 15.26 31.89 15.52 31.71 15.71 31.52 15.89 31.26 16 31 16" fill="#ca3433" data-fill-palette-color="accent"></path><path d="M9 22C8.74 22 8.48 21.89 8.29 21.71 8.11 21.52 8 21.26 8 21S8.11 20.479 8.29 20.29C8.66 19.92 9.33 19.92 9.71 20.29 9.89 20.479 10 20.74 10 21S9.89 21.52 9.71 21.71C9.52 21.89 9.26 22 9 22" fill="#ca3433" data-fill-palette-color="accent"></path><path d="M16 2C15.74 2 15.48 1.89 15.29 1.71 15.11 1.52 15 1.26 15 1S15.11 0.48 15.29 0.29C15.67-0.08 16.33-0.08 16.71 0.29 16.89 0.48 17 0.74 17 1S16.89 1.52 16.71 1.71C16.52 1.89 16.26 2 16 2" fill="#ca3433" data-fill-palette-color="accent"></path><path d="M4 8H1A1 1 0 0 1 1 6H4A1 1 0 0 1 4 8" fill="#ca3433" data-fill-palette-color="accent"></path><path d="M13 8H10A1 1 0 0 1 10 6H13A1 1 0 0 1 13 8" fill="#ca3433" data-fill-palette-color="accent"></path><path d="M26 12A1 1 0 0 1 25 11C25 7.691 27.691 5 31 5A1 1 0 1 1 31 7C28.794 7 27 8.794 27 11A1 1 0 0 1 26 12" fill="#ca3433" data-fill-palette-color="accent"></path><path d="M21 7A1 1 0 1 1 21 5C23.206 5 25 3.206 25 1A1 1 0 1 1 27 1C27 4.309 24.309 7 21 7" fill="#ca3433" data-fill-palette-color="accent"></path><path d="M26 12A1 1 0 0 1 25 11C25 8.794 23.206 7 21 7A1 1 0 1 1 21 5C24.309 5 27 7.691 27 11A1 1 0 0 1 26 12" fill="#ca3433" data-fill-palette-color="accent"></path><path d="M31 7C27.691 7 25 4.309 25 1A1 1 0 1 1 27 1C27 3.206 28.794 5 31 5A1 1 0 1 1 31 7" fill="#ca3433" data-fill-palette-color="accent"></path></g></svg></g><g transform="matrix(1,0,0,1,269.8652,7.517399999999991)"><svg width="122.85000000000002" viewBox="2.25 -37 122.84 37.6" height="37.6" data-palette-color="#ca3433"><path d="M14.5 0.6L14.5 0.6Q10.8 0.6 8.03-1.13 5.25-2.85 3.75-5.93 2.25-9 2.25-13L2.25-13Q2.25-16.75 3.78-19.85 5.3-22.95 8.15-24.78 11-26.6 14.85-26.6L14.85-26.6Q17.05-26.6 18.73-26.2 20.4-25.8 21.95-25.05L21.95-25.05 20.6-21.25Q19.2-21.95 17.93-22.28 16.65-22.6 15.1-22.6L15.1-22.6Q11.6-22.6 9.22-20.08 6.85-17.55 6.85-13.1L6.85-13.1Q6.85-10.4 7.85-8.2 8.85-6 10.63-4.7 12.4-3.4 14.8-3.4L14.8-3.4Q16.7-3.4 18.05-3.83 19.4-4.25 20.95-5.05L20.95-5.05 22.35-1.25Q20.8-0.4 18.88 0.1 16.95 0.6 14.5 0.6ZM32.1 0L27.6 0 27.6-37 32.1-37 32.1-21.85Q33.5-23.9 35.65-25.25 37.8-26.6 40.7-26.6L40.7-26.6Q45.1-26.6 47.27-23.95 49.45-21.3 49.45-16.95L49.45-16.95 49.45 0 44.95 0 44.95-16.45Q44.95-19.25 43.65-20.95 42.35-22.65 40-22.65L40-22.65Q37.7-22.65 35.62-21.03 33.55-19.4 32.1-17.2L32.1-17.2 32.1 0ZM68.15 0.6L68.15 0.6Q64.45 0.6 61.5-1.13 58.55-2.85 56.87-5.93 55.2-9 55.2-13L55.2-13Q55.2-17.2 56.9-20.25 58.6-23.3 61.55-24.95 64.5-26.6 68.15-26.6L68.15-26.6Q71.8-26.6 74.72-24.95 77.65-23.3 79.37-20.28 81.1-17.25 81.1-13.1L81.1-13.1Q81.1-8.95 79.4-5.88 77.7-2.8 74.77-1.1 71.85 0.6 68.15 0.6ZM68.15-3.4L68.15-3.4Q72.1-3.4 74.3-6.08 76.5-8.75 76.5-13L76.5-13Q76.5-15.6 75.4-17.78 74.3-19.95 72.42-21.28 70.55-22.6 68.15-22.6L68.15-22.6Q64.2-22.6 62-20 59.8-17.4 59.8-13.1L59.8-13.1Q59.8-10.5 60.9-8.28 62-6.05 63.87-4.73 65.75-3.4 68.15-3.4ZM91.59 0L87.09 0 87.09-26 91.44-26 91.44-21.65Q92.84-23.75 94.99-25.18 97.14-26.6 99.89-26.6L99.89-26.6Q102.99-26.6 104.97-25.1 106.94-23.6 107.74-21.1L107.74-21.1Q109.29-23.4 111.42-25 113.54-26.6 116.69-26.6L116.69-26.6Q120.94-26.6 123.02-23.93 125.09-21.25 125.09-16.95L125.09-16.95 125.09 0 120.59 0 120.59-16.6Q120.59-19.3 119.34-20.98 118.09-22.65 115.89-22.65L115.89-22.65Q113.64-22.65 111.72-20.98 109.79-19.3 108.34-17.05L108.34-17.05 108.34 0 103.84 0 103.84-16.6Q103.84-19.3 102.59-20.98 101.34-22.65 99.14-22.65L99.14-22.65Q96.94-22.65 94.99-21.03 93.04-19.4 91.59-17.2L91.59-17.2 91.59 0Z" opacity="1" transform="matrix(1,0,0,1,0,0)" fill="#ca3433" class="undefined-tk-1"></path></svg></g></svg></g></svg></g></svg></g></svg></g></svg></g><defs></defs></svg><rect width="392.71520000000004" height="78.6348" fill="none" stroke="none" visibility="hidden"></rect></g></svg></g></svg>